# xmcd
#
# Track frame offsets: 
#        150
#        40792
#        52627
#        89756
#        113463
#        135534
#        158960
#        174023
#        188545
#        206938
#
# Disc length: 2929 seconds
#
# Revision: 0
# Processed by: cddbd v1.5.2PL0 Copyright (c) Steve Scherf et al.
# Submitted via: ExactAudioCopyFreeDBPlugin 1.0
#
DISCID=760b6f0a
DTITLE=Peter Green - The End of the Game - 2020 Reissue
DYEAR=1970
DGENRE=Psychedelic Rock
TTITLE0=Bottoms Up
TTITLE1=Timeless Time
TTITLE2=Descending Scale
TTITLE3=Burnt Foot
TTITLE4=Hidden Depth
TTITLE5=The End of the Game
TTITLE6=Heavy Heart (Bonus Track)
TTITLE7=No Way Out (Bonus Track)
TTITLE8=Beasts of Burden (Bonus Track)
TTITLE9=Uganda Woman (Bonus Track)
EXTD=
EXTT0=
EXTT1=
EXTT2=
EXTT3=
EXTT4=
EXTT5=
EXTT6=
EXTT7=
EXTT8=
EXTT9=
PLAYORDER=
